<?xml version="1.0" encoding="utf-8"?>
<!-- Generator: Adobe Illustrator 22.0.0, SVG Export Plug-In . SVG Version: 6.00 Build 0)  -->
<!DOCTYPE svg PUBLIC "-//W3C//DTD SVG 1.1//EN" "http://www.w3.org/Graphics/SVG/1.1/DTD/svg11.dtd">
<svg version="1.1" id="Layer_1" xmlns="http://www.w3.org/2000/svg" xmlns:xlink="http://www.w3.org/1999/xlink" x="0px" y="0px"
	 viewBox="0 0 108 129" style="enable-background:new 0 0 108 129;" xml:space="preserve">
<style type="text/css">
	.st0{fill:#AE3F34;}
	.st1{fill:#EB732D;}
	.st2{fill:#FFFFFF;}
</style>
<g>
	<path class="st0" d="M55.7,127.9H6.5c-3.1,0-5.5-2.5-5.5-5.5V6.6c0-3,2.5-5.5,5.5-5.5h49.2V127.9z"/>
	<path class="st1" d="M101.5,127.9H52.3V1h49.2c3.1,0,5.5,2.5,5.5,5.5v115.9C107.1,125.4,104.6,127.9,101.5,127.9"/>
	<path class="st2" d="M19.6,104.1c3.4,0,6.1,1.5,8.1,4.6L30,107c-0.7-1.3-1.5-2.4-2.4-3.2c-1-0.8-2.1-1.5-3.5-2s-2.8-0.8-4.3-0.8
		c-2.4,0-4.5,0.6-6.4,1.8c-1.9,1.2-3.4,2.9-4.5,5.1s-1.6,4.5-1.6,7.1c0,3.8,1.2,7,3.5,9.6c1.4,1.5,2.9,2.6,4.7,3.3h8.2
		c0.7-0.2,1.3-0.5,1.9-0.9c1.8-1,3.2-2.5,4.3-4.4l-2.3-1.8c-2.1,3.1-4.8,4.6-8.1,4.6c-1.8,0-3.4-0.5-4.9-1.4s-2.6-2.3-3.4-4
		c-0.8-1.7-1.2-3.5-1.2-5.4c0-3,0.9-5.5,2.7-7.5C14.6,105.1,16.8,104.1,19.6,104.1"/>
	<path class="st2" d="M48.4,120.3c-0.8,1.6-1.8,2.8-3.2,3.8c-1.4,0.9-2.9,1.4-4.5,1.4s-3-0.5-4.4-1.4s-2.4-2.3-3.2-3.9
		c-0.8-1.7-1.2-3.5-1.2-5.3c0-1.9,0.4-3.6,1.2-5.3c0.8-1.7,1.9-3,3.2-3.9c1.4-0.9,2.8-1.4,4.4-1.4c2.5,0,4.6,1,6.3,3.1
		c1.7,2,2.5,4.6,2.5,7.6C49.6,116.9,49.2,118.7,48.4,120.3 M49.4,106.5c-1.1-1.8-2.4-3.2-3.9-4.1s-3.1-1.4-5-1.4
		c-3.2,0-5.9,1.3-8.2,4s-3.4,5.9-3.4,9.7c0,3.9,1.1,7.1,3.4,9.8c1.3,1.6,2.8,2.7,4.5,3.4h7.3c0.4-0.2,0.9-0.4,1.3-0.6
		c1.5-0.9,2.9-2.2,4.1-3.9v4.5h2.9V74.3h-2.9L49.4,106.5L49.4,106.5z M73.4,38.8h0.2H73.4 M59.3,43.5C59.4,43.4,59.3,43.5,59.3,43.5
		 M73.5,39h0.2C73.6,38.9,73.5,38.9,73.5,39 M59.5,43.5C59.4,43.6,59.5,43.6,59.5,43.5"/>
	<path class="st2" d="M101.8,101.3c-0.2-0.6-0.2-1.1-0.5-1.6c-0.2-2.2-1-4.1-1.6-6.1c0.3-0.7-0.6-1.3-0.1-2c-0.5-1-0.3-2.2-0.7-3.2
		c0.1-1-0.9-1.9-0.3-2.7c-0.1-0.6-0.6-1.3-0.2-1.9c-1.2-2.4-2.3-4.9-3.3-7.4c-0.8-2.3-2.3-4.2-3-6.6c-1.5-1.2-1.6-3.2-3.3-4.2
		c-0.9-0.3-0.6,1.1-1.6,1c-0.2-0.4,0.4-0.9,0.7-1.3c-2.2-0.1-4.5,0.1-6.6,0.7c-0.9,0.8-2.1,0.9-3.3,0.7c-2.6-0.1-4.3,2.2-6.8,2.1
		c0.6-2.4,0.4-5.1,0.7-7.7c0.2-0.2,0.4-0.4,0.7-0.4c-0.2-0.7,0.7-1.1,0.3-1.5c0.2-2.2,0-4.6-0.4-6.8c0.1-0.1,0.2-0.2,0.3-0.2
		L72.3,52c0-0.4,0.6-0.3,0.6-0.5l-0.1-0.1c-0.6-3.2-0.1-6.7,0.1-10l0.4-0.5l-0.1-0.1c0-0.1,0.2-0.1,0.1-0.2h-0.2
		c-0.2,0-0.1-0.2-0.1-0.3c-0.1-0.5,0.1-0.8,0.4-1v-0.1c-0.4-1.6-0.1-3.5,0-5.2l0.4-0.3c0.2-0.4,0-0.8-0.1-1.2
		c-0.4-4.6-0.1-10-0.3-14.8l0.2-0.2c0.3-0.2-0.1-0.4-0.2-0.3c-0.1-0.3,0.2-0.4,0.1-0.7h-0.1c-0.2-0.1-0.2-0.2-0.2-0.4
		c0-0.2,0.3-0.2,0.4-0.3c0-1.1-0.3-2.1-0.3-3l-0.2,0.1c-0.5-0.6,0.7-0.8,0.4-1.5h-0.4c-0.4-0.2,0-0.6-0.2-0.9
		c0.2-0.4,0.7-0.2,0.9-0.4c-0.1,0-0.2,0.1-0.3,0.1c-0.4-0.3,0-0.6-0.2-1c0-0.2-0.3-0.1-0.4-0.1c-0.9-0.4,0.4-0.6,0.2-1L72.8,8
		c0.1-0.3,0.1-0.6,0.4-0.8c-0.2,0-0.3-0.3-0.4-0.4c-0.2,0-0.4,0.2-0.5-0.1c0-0.1,0.1-0.2,0.1-0.3c0.3-0.2,0.6-0.3,0.8-0.1V5.4
		c-0.2,0-0.5,0.1-0.7-0.1c0-1.5-0.2-2.9-0.5-4.2h-8.9c0,0.2-0.1,0.4-0.1,0.7c0,0.2,0.2,0.7,0.2,0.9c0.1,0.1,0,0.3-0.2,0.5
		c-0.2,0-0.2,0.5-0.2,0.6C62.8,4,63,4,62.9,4.3C63,4.5,63,4.8,63,5.4c-0.4,0.6-0.5,1.1-0.5,1.8C63.1,8,61.6,8.3,62.4,9
		c-0.4,0.5,0.3,1.4-0.2,2c-1,1.3,0.7,2.7-0.3,4c-0.2,0-0.5-0.1-0.6,0.1c0.2,0.6-0.7,1,0,1.5c0.1,0.2,0,0.3-0.1,0.5
		c0.7,0.9-0.1,2,0.1,2.9c-0.3,0.4,0.3,0.5,0.1,1c-0.1,0.1-0.1,0.2-0.3,0.2c0.4,0.7-0.6,1.2,0,1.7c0,0.1,0,0.3-0.1,0.4
		c0,0.4,0,1.3-0.2,1.5c0.1,0.8,0,1.7-0.4,2.4c0.4,0.1,0.1,0.5,0,0.7c-0.3-0.1-0.3-0.5-0.4-0.7c-0.3,0.3,0.3,0.8-0.2,1
		c0,0.4,0.6,0,0.7,0.4c0,1.4-0.1,2.8-0.8,4c0.3,0.3-0.3,0.4-0.2,0.7c0.6,0.3,0,0.8,0.1,1.3c-0.2,1.7,0.2,3.9-0.7,5.2
		c0,0.3,0.2,0.5,0.4,0.7c0.1,0.5,0.1,1.6-0.2,2.1l0.3,0.1c0.1,0.3,0.1,0.8-0.1,1.1c0.1-0.1,0.2-0.1,0.3,0c0.4,6.5,0.4,13.5,0,19.9
		l-0.7,1c-1.2,1.7,0,4.1-1,5.9c0.3,1.2,0.4,2.5,0.4,3.8c0.3,1.4-0.8,2.3-1,3.5c1.1,1.7,0.2,4-0.1,5.8c0.4,1.5-0.6,2.5-0.9,3.8
		c-0.1,4.4,0.6,8.6,1.5,12.5c1.2,1.4,1.9,3.6,3.9,4.3c0.3,0.3,1.2,0.3,1,0.9c0.3-0.1,0.6,0.2,0.8,0.3c0-0.8,1-0.3,1.2-1l0.1,0.1
		c0.4,0.1,0.1-0.3,0.4-0.4c1.3-0.1,0,1.5,0.7,2c0.3-0.7,0.8-1.3,1.3-1.8c1.5-2.7,1.6-6,2.8-8.8c0.2-1.3-0.3-3,1-3.8
		c0.3-1.8,1.7-3.2,2.5-4.8c0-1.1,1.2-1.8,1.9-2.6c0.6-0.3,0.4-1.2,1.2-1.2c1.4-1.4,3-2.1,4.5-3.2c1.1-0.7,2.3-1.4,3.4-1.7l-0.2,0.2
		c1.6-0.5,2.5,1.4,3.9,1.8c-0.6,2.5-1.6,5.3-0.9,8c-0.3,3.6-1.6,6.9-1.1,10.8c0.4,0.4,0.8,0.8,0.7,1.5c1.1,1.7,0.9,3.9,1.6,5.7
		c0.6,2.4,3.5,2.8,4.5,4.9l0.2-0.4c0.4,0.4,0.5,0.9,0.7,1.3c0.1,0.3,0.6,0,0.5,0.4c0.8-1.3,1.6-2.5,2.7-3.7c0.5-0.6,1.1-0.8,1.5-1.5
		c0.4-0.5,0.9-1.1,1.5-0.8c-0.3-1.1,0.4-2.1,1.1-2.6l-0.6-0.6C101,102.5,101.2,101.8,101.8,101.3"/>
</g>
</svg>
