<svg id="Layer_1" xmlns="http://www.w3.org/2000/svg" viewBox="0 0 435 135"><style>.st0{fill:#6e6e6d}.st1{fill:#999a9a}.st2{fill:none;stroke:#858584;stroke-width:.943}.st3{fill:#ae3f34}.st4{fill:#fff}.st5{fill:#eb732d}</style><path class="st0" d="M156.5 52.8l-.5 3c-.1.4-.3.6-.7.6-1.1-.1-2.8-.2-4.5-.2-2.1 0-4 1.1-4.8 5.2l-.7 3.9c-.1.7-.2 1.3-.2 1.9 0 2.6 1.4 3.3 3.1 3.3 1.7 0 3.4-.2 4.6-.2h.1c.3 0 .5.2.5.5v.2l-.6 3c-.1.4-.3.6-.8.7-.7.2-2.5.5-4.7.5-4.1 0-7.6-2.5-7.6-7.6 0-.7.1-1.5.2-2.3l.7-3.9c1.5-8.1 5.9-9.8 10.9-9.8 2.2 0 3.9.3 4.5.5.4.1.6.2.6.5-.1.1-.1.1-.1.2zM171.3 65l-.4 2.2c-1 5.3-3.7 8-9.2 8-4.2 0-6.5-2.7-6.5-6.3 0-.6 0-1.1.2-1.7l.4-2.2c1.1-5.6 4-8 9.2-8 4.2 0 6.5 2.5 6.5 6.3 0 .5-.1 1.3-.2 1.7zm-7.1-3.8c-1.8 0-2.9 1.1-3.4 3.8l-.4 2.2c-.1.6-.2 1.1-.2 1.5 0 1.6.7 2.3 2.3 2.3 2 0 2.9-1.3 3.4-3.8l.4-2.2c.1-.5.2-1 .2-1.4 0-1.7-.8-2.4-2.3-2.4zm32.6 2.1l-1.9 10.9c-.1.3-.4.7-.7.7h-3.8c-.3 0-.5-.3-.5-.6v-.1l1.9-10.9c.1-.4.1-.7.1-1 0-1-.5-1.3-1.5-1.3h-.6c-1.5 0-1.9.8-2.1 2.3l-1.9 10.9c-.1.3-.4.7-.7.7h-3.8c-.3 0-.5-.3-.5-.6v-.1l1.9-10.9c.1-.4.1-.7.1-1.1 0-.8-.3-1.2-1.5-1.2h-.6c-1.3 0-1.9.3-2.2 2.3l-1.9 10.9c-.1.3-.4.7-.7.7H172c-.3 0-.5-.3-.5-.6v-.1l1.9-10.9c.9-5 3.5-6.4 7.9-6.4h.6c1.8 0 3.1.5 4 1.3 1.2-.8 2.6-1.3 4.5-1.3h.6c3.7 0 5.9 1.9 5.9 5 0 .5 0 .9-.1 1.4zm25.5 0l-1.9 10.9c-.1.3-.4.7-.7.7h-3.8c-.3 0-.5-.3-.5-.6v-.1l1.9-10.9c.1-.4.1-.7.1-1 0-1-.5-1.3-1.5-1.3h-.6c-1.5 0-1.9.8-2.1 2.3l-1.9 10.9c-.1.3-.4.7-.7.7h-3.8c-.3 0-.5-.3-.5-.6v-.1l1.9-10.9c.1-.4.1-.7.1-1.1 0-.8-.3-1.2-1.5-1.2h-.6c-1.3 0-1.9.3-2.2 2.3l-1.9 10.9c-.1.3-.4.7-.7.7h-3.8c-.3 0-.5-.3-.5-.6v-.1l1.9-10.9c.9-5 3.5-6.4 7.9-6.4h.6c1.8 0 3.1.5 4 1.3 1.2-.8 2.6-1.3 4.5-1.3h.6c3.7 0 5.9 1.9 5.9 5-.1.5-.1.9-.2 1.4zm18.4-5.5l-1.7 9.5c-1.4 7.6-6.6 7.9-8.9 7.9h-.2c-1.3 0-6.3-.5-6.3-5.9 0-.6.1-1.2.2-1.9l1.7-9.5c.1-.3.2-.7.7-.7h3.8c.4 0 .6.2.5.7l-1.7 9.5c-.1.6-.2 1.2-.2 1.6 0 1.6.7 2 2 2h.2c1.8 0 2.6-.7 3.1-3.6l1.7-9.5c.1-.3.2-.7.7-.7h3.8c.5 0 .7.2.6.6zm16.4 5.9l-1.9 10.5c-.1.3-.4.7-.7.7h-3.8c-.3 0-.5-.2-.5-.5v-.1l1.9-10.9c.1-.4.1-.7.1-1 0-.8-.3-1.3-1.5-1.3h-1.5c-1.6 0-2 .8-2.2 2.3l-2 10.9c-.1.3-.4.7-.7.7h-3.8c-.3 0-.5-.2-.5-.5v-.1l2-11.3c.7-4.2 3.4-6.1 7.9-6.1h1.5c3.8 0 5.8 1.9 5.8 5.1 0 .4 0 1-.1 1.6zm18-5.1l-2.6 14.9c-.1.5-.2.7-1.1.9-1.9.4-4.3.8-6.7.8-4.1 0-6.5-2.6-6.5-6.3 0-.5 0-1.1.1-1.6l.4-2.4c1-5.9 4.1-7.9 9.2-7.9 2.4 0 4.7.4 6.4.8.6.1.9.2.8.8zm-8 2.5c-2.4 0-3.1 1.4-3.5 3.8l-.4 2.4c-.1.6-.2 1.1-.2 1.5 0 1.5.6 2.3 2.3 2.3 1 0 2-.1 2.6-.2l1.7-9.7c-.5-.1-1.5-.1-2.5-.1zm16.7-9.3l-4 22.5c-.1.3-.4.7-.7.7h-3.8c-.3 0-.5-.2-.5-.6v-.1l4-22.5c.1-.3.4-.6.7-.6h3.8c.3 0 .5.2.5.6 0-.1 0-.1 0 0zm15.1 13.3l-.3 1.8c-.1.5-.4.7-.8.7h-9.9c-.1.5-.1.9-.1 1.3 0 1.6.8 2.2 2.8 2.2s4.7-.2 6-.3c.5 0 .6.1.6.5l-.4 2.4c-.1.5-.2.7-.8.8-2.1.5-3.8.7-6.5.7-3.3 0-6.5-1.9-6.5-6.2 0-.5.1-1.1.2-1.7l.4-2.2c.9-5.4 4.2-8.1 9.3-8.1 4.2 0 6.4 2.8 6.4 6.5-.2.4-.3 1-.4 1.6zm-6.9-4.2c-2.1 0-3.1 1.4-3.6 3.6h5.8c.1-.5.2-1 .2-1.4 0-1.4-.7-2.2-2.4-2.2zm22-2.6l-.4 2.5c-.1.3-.3.6-.6.6h-.1c-.9-.1-3.5-.4-5.1-.4h-.1c-.8 0-1.7 0-1.7 1.1 0 .4.2.6.7 1l3.4 2.2c1.9 1.2 2.4 2.6 2.4 3.8 0 4.5-3.7 6.1-7.6 6.1-1.7 0-4-.2-5.5-.7-.3-.1-.5-.3-.5-.6v-.2l.5-2.5c.1-.4.3-.6.7-.6h.1c1.6.2 3.8.4 5.2.4 1.1 0 2-.1 2-1.4 0-.4-.2-.8-.9-1.2l-3.6-2.3c-1.4-.9-2-2.3-2-3.7 0-4.3 3.5-5.6 7.2-5.6 2.2 0 3.9.3 5.4.7.3.1.5.3.5.6v.2z"/><path class="st1" d="M164 85.8v.3c-.6 5.9-5.2 7.5-10.6 7.5-.7 0-1.7-.1-2.5-.1l-1.3 7.5c-.1.3-.4.6-.7.6h-4c-.3 0-.5-.2-.5-.5v-.1l3.7-20.8c.2-1.1.7-1.3 1.6-1.5 1.6-.2 4.1-.4 6.4-.4 4.7 0 8 1.9 8 6.3-.1.4-.1.8-.1 1.2zm-8.7-3.1c-.4 0-2.2.1-2.5.1l-1.1 6.3c.3 0 2.2.1 2.5.1 2.8 0 4.3-1 4.5-3.1v-.9c.1-1.8-1-2.5-3.4-2.5zm19.3 1.5l-.5 3c-.1.3-.2.6-.9.6-.9 0-2.1.1-2.8.2l-2.3 13c-.1.3-.2.7-.7.7h-3.7c-.3 0-.6-.2-.5-.7l2.7-15.4c.1-.4.3-.7 1.1-1 2.1-.7 4.1-.9 7-.9.4-.1.6.1.6.5zm14.7 7.4l-.4 2.2c-1 5.3-3.7 8-9.2 8-4.2 0-6.5-2.7-6.5-6.3 0-.6 0-1.1.2-1.7l.4-2.2c1.1-5.6 4-8 9.2-8 4.2 0 6.5 2.5 6.5 6.3 0 .5-.1 1.4-.2 1.7zm-7.1-3.7c-1.8 0-2.9 1.1-3.4 3.8l-.4 2.2c-.1.6-.2 1.1-.2 1.5 0 1.6.7 2.3 2.3 2.3 2 0 2.9-1.3 3.4-3.8l.4-2.2c.1-.5.2-1 .2-1.4 0-1.7-.7-2.4-2.3-2.4zm25.2-3.3L201 98.7c-1.2 2.8-3.3 3.2-5.1 3.2s-3.6-.5-3.9-3.2l-1.4-14.1v-.1c0-.4.3-.7.6-.7h3.9c.3 0 .5.3.5.7l.5 12.1c0 .5.2.7.4.7s.4-.2.6-.7l4.8-12.1c.2-.4.5-.7.8-.7h4.2c.2 0 .4.2.4.4.2.2.2.3.1.4zm6.5-.1L211 101c-.1.3-.2.6-.7.6h-3.8c-.4 0-.6-.2-.5-.6l2.9-16.5c.1-.3.4-.6.7-.6h3.8c.4-.1.6.1.5.6zm-4.5-3.3l.5-2.9c.1-.3.2-.6.7-.6h4c.4 0 .6.2.5.6l-.5 2.9c-.1.3-.2.6-.7.6h-4c-.4 0-.6-.2-.5-.6zm21.2 9.2l-1.9 10.5c-.1.3-.4.7-.7.7h-3.8c-.3 0-.5-.2-.5-.5v-.1l1.9-10.9c.1-.4.1-.7.1-1 0-.8-.3-1.3-1.5-1.3h-1.5c-1.6 0-2 .8-2.2 2.3l-1.9 10.9c-.1.3-.4.7-.7.7h-3.8c-.3 0-.5-.2-.5-.5v-.1l2-11.3c.7-4.2 3.4-6.1 7.9-6.1h1.5c3.8 0 5.8 1.9 5.8 5.1-.1.4-.1 1-.2 1.6zm14.3-6.3c.6.2.6.3.5.7l-.5 2.8c-.1.3-.1.6-.7.5-1.2-.1-2-.2-3.7-.2-1.5 0-2.6.7-3.2 3.6l-.5 2.6c-.1.6-.2 1.1-.2 1.5 0 1.7.8 2.1 2.1 2.1 1.8 0 2.6-.1 3.8-.2.5-.1.6.2.6.5l-.5 2.8c-.1.5-.3.6-.8.7-.9.2-2.3.5-4.1.5-3.6 0-6.1-2.2-6.1-6 0-.6.1-1.2.2-1.8l.5-2.6c1-5.8 4.1-7.8 8.6-7.8 1.8-.2 3.2 0 4 .3zm7.6.4l-2.9 16.5c-.1.3-.2.6-.7.6h-3.8c-.4 0-.6-.2-.5-.6l2.9-16.5c.1-.3.4-.6.7-.6h3.8c.4-.1.6.1.5.6zm-4.5-3.3l.5-2.9c.1-.3.2-.6.7-.6h4c.4 0 .6.2.5.6l-.5 2.9c-.1.3-.2.6-.7.6h-4c-.4 0-.6-.2-.5-.6zm21.7 4.1l-2.6 14.9c-.1.5-.2.7-1.1.9-1.9.4-4.3.8-6.7.8-4.1 0-6.5-2.6-6.5-6.3 0-.5 0-1.1.1-1.6l.4-2.4c1-5.9 4.1-7.9 9.2-7.9 2.4 0 4.7.4 6.4.8.6.1.9.2.8.8zm-7.9 2.4c-2.4 0-3.1 1.4-3.5 3.8l-.4 2.4c-.1.6-.2 1.1-.2 1.5 0 1.5.6 2.3 2.3 2.3 1 0 2-.1 2.6-.2l1.7-9.7c-.6 0-1.5-.1-2.5-.1zm16.6-9.2l-4 22.5c-.1.3-.4.7-.7.7H270c-.3 0-.5-.2-.5-.6v-.1l4-22.5c.1-.3.4-.6.7-.6h3.8c.3 0 .5.2.5.5-.1 0-.1 0-.1.1zm15.2 13.2l-.3 1.8c-.1.5-.4.7-.8.7h-9.9c-.1.5-.1.9-.1 1.3 0 1.6.8 2.2 2.8 2.2s4.7-.2 6-.3c.5 0 .6.1.6.5l-.4 2.4c-.1.5-.2.7-.8.8-2.1.5-3.8.7-6.5.7-3.3 0-6.5-1.9-6.5-6.2 0-.5.1-1.1.2-1.7l.4-2.2c.9-5.4 4.2-8.1 9.3-8.1 4.2 0 6.4 2.8 6.4 6.5-.3.5-.3 1.1-.4 1.6zm-7-4.1c-2.1 0-3.1 1.4-3.6 3.6h5.8c.1-.5.2-1 .2-1.4 0-1.4-.6-2.2-2.4-2.2zm22.1-2.6l-.4 2.5c-.1.3-.3.6-.6.6h-.1c-.9-.1-3.5-.4-5.1-.4h-.1c-.8 0-1.7 0-1.7 1.1 0 .4.2.6.7 1l3.4 2.2c1.9 1.2 2.4 2.6 2.4 3.8 0 4.5-3.7 6.1-7.6 6.1-1.7 0-4-.2-5.5-.7-.3-.1-.5-.3-.5-.6v-.2l.5-2.5c.1-.4.3-.6.7-.6h.1c1.6.2 3.8.4 5.2.4 1.1 0 2-.1 2-1.4 0-.4-.2-.8-.9-1.2l-3.6-2.3c-1.4-.9-2-2.3-2-3.7 0-4.3 3.5-5.6 7.2-5.6 2.2 0 3.9.3 5.4.7.3.1.5.3.5.6v.2z"/><path class="st0" d="M344.8 72.1l-4.6 2.8c-3.6 2.1-7.3 3.8-8.3 8.1H347c.5 0 .8.3.8.8v.1l-.9 5c-.1.5-.6 1-1.2 1H324c-.5 0-.8-.3-.8-.8V89l.9-5c.9-5.4 4-9.8 8.8-12.8L338 68c4.8-3 6-3.7 6-5.9 0-1.6-1.2-2.3-4.7-2.3-3 0-6.7.3-9.7.6h-.1c-.4 0-.7-.3-.7-.8v-.2l.7-3.8c.1-.5.5-.8 1.1-.9 2.9-.8 6.5-1.5 10.7-1.5 7.3 0 10.9 2.9 10.9 7.5-.1 5.4-2.7 8.5-7.4 11.4zm33.9-2.4l-.7 4.2c-2.1 12.1-7.1 16.4-16.1 16.4-6.4 0-10.6-3.8-10.6-11.6 0-1.5.1-3.1.4-4.8l.7-4.2c2.2-13 7.5-16.5 16-16.5 6.7 0 10.7 3.9 10.7 11.6 0 1.6-.1 3.2-.4 4.9zm-11.4-9.5c-3.1 0-5.2 2-6.5 9.5l-.7 4.2c-.3 2-.5 3.7-.5 5 0 3.6 1.3 4.5 3.6 4.5 3 0 5.2-1.8 6.5-9.5l.7-4.2c.3-2 .5-3.7.5-4.9 0-3.6-1.3-4.6-3.6-4.6zM386.8 83l3.7-20.9-6.8 2.7c-.2.1-.4.1-.6.1-.3 0-.5-.2-.4-.6l1-5.6c.1-.3.2-.5.6-.7l9.5-4.1c.3-.1.7-.2 1.2-.2h4.4c.5 0 .8.4.7.9l-5 28.3h6.5c.5 0 .9.4.8.9l-.9 5c-.1.5-.6 1-1.1 1h-21.2c-.5 0-.9-.4-.8-1l.9-5c.1-.5.6-.9 1.2-.9h6.3v.1zm41.6-11.9c1.8 1.5 2.9 3.7 2.9 6.3 0 9.2-6.5 13-15 13h-.5c-6.6 0-11.1-3.5-11.1-9.1 0-4.3 2.1-7.8 5.7-10.2-1.8-1.6-2.7-3.5-2.7-6.1 0-8.8 6.7-11.7 14.6-11.7h.5c7.2 0 11 3.6 11 8.9 0 3.9-1.8 7-5.4 8.9zm-8.8 3H418c-3.7 0-5.5 3.3-5.5 6.6 0 2.1 1.2 3.5 4.2 3.5h.5c3.9 0 5.9-2.9 5.9-6.5.1-1.9-.9-3.6-3.5-3.6zm2.1-14.7h-.5c-3.8 0-5.8 2-5.8 5.7 0 1.9 1.2 3.2 3.8 3.2h1.5c3.5 0 5.4-2.5 5.4-5.7-.1-2.1-1.4-3.2-4.4-3.2z"/><path class="st2" d="M322.3 48.6l-10.4 58.7"/><path class="st3" d="M56 131H6.8c-3.1 0-5.5-2.5-5.5-5.5V9.6c0-3 2.5-5.5 5.5-5.5H56V131z"/><path class="st4" d="M105.6 134.7H52.9V.3h52.7c3.3 0 5.9 2.6 5.9 5.8v122.8c0 3.2-2.6 5.8-5.9 5.8"/><path class="st5" d="M101.8 131H52.6V4.1h49.2c3.1 0 5.5 2.5 5.5 5.5v115.9c.1 3-2.4 5.5-5.5 5.5"/><path class="st4" d="M19.9 107.2c3.4 0 6.1 1.5 8.1 4.6l2.3-1.7c-.7-1.3-1.5-2.4-2.4-3.2-1-.8-2.1-1.5-3.5-2s-2.8-.8-4.3-.8c-2.4 0-4.5.6-6.4 1.8-1.9 1.2-3.4 2.9-4.5 5.1s-1.6 4.5-1.6 7.1c0 3.8 1.2 7 3.5 9.6 1.4 1.5 2.9 2.6 4.7 3.3H24c.7-.2 1.3-.5 1.9-.9 1.8-1 3.2-2.5 4.3-4.4l-2.3-1.8c-2.1 3.1-4.8 4.6-8.1 4.6-1.8 0-3.4-.5-4.9-1.4s-2.6-2.3-3.4-4c-.8-1.7-1.2-3.5-1.2-5.4 0-3 .9-5.5 2.7-7.5 1.9-2 4.1-3 6.9-3"/><path class="st4" d="M48.7 123.4c-.8 1.6-1.8 2.8-3.2 3.8-1.4.9-2.9 1.4-4.5 1.4s-3-.5-4.4-1.4-2.4-2.3-3.2-3.9c-.8-1.7-1.2-3.5-1.2-5.3 0-1.9.4-3.6 1.2-5.3.8-1.7 1.9-3 3.2-3.9 1.4-.9 2.8-1.4 4.4-1.4 2.5 0 4.6 1 6.3 3.1 1.7 2 2.5 4.6 2.5 7.6.1 1.9-.3 3.7-1.1 5.3m1-13.8c-1.1-1.8-2.4-3.2-3.9-4.1s-3.1-1.4-5-1.4c-3.2 0-5.9 1.3-8.2 4s-3.4 5.9-3.4 9.7c0 3.9 1.1 7.1 3.4 9.8 1.3 1.6 2.8 2.7 4.5 3.4h7.3c.4-.2.9-.4 1.3-.6 1.5-.9 2.9-2.2 4.1-3.9v4.5h2.9V77.4h-2.9l-.1 32.2zm24-67.7h.2-.2m-14.1 4.7c.1-.1 0 0 0 0m14.2-4.5h.2c-.1-.1-.2-.1-.2 0m-14 4.5c-.1.1 0 .1 0 0"/><path class="st4" d="M102.1 104.4c-.2-.6-.2-1.1-.5-1.6-.2-2.2-1-4.1-1.6-6.1.3-.7-.6-1.3-.1-2-.5-1-.3-2.2-.7-3.2.1-1-.9-1.9-.3-2.7-.1-.6-.6-1.3-.2-1.9-1.2-2.4-2.3-4.9-3.3-7.4-.8-2.3-2.3-4.2-3-6.6-1.5-1.2-1.6-3.2-3.3-4.2-.9-.3-.6 1.1-1.6 1-.2-.4.4-.9.7-1.3-2.2-.1-4.5.1-6.6.7-.9.8-2.1.9-3.3.7-2.6-.1-4.3 2.2-6.8 2.1.6-2.4.4-5.1.7-7.7.2-.2.4-.4.7-.4-.2-.7.7-1.1.3-1.5.2-2.2 0-4.6-.4-6.8.1-.1.2-.2.3-.2l-.5-.3c0-.4.6-.3.6-.5l-.1-.1c-.6-3.2-.1-6.7.1-10l.4-.5-.1-.1c0-.1.2-.1.1-.2h-.2c-.2 0-.1-.2-.1-.3-.1-.5.1-.8.4-1v-.1c-.4-1.6-.1-3.5 0-5.2l.4-.3c.2-.4 0-.8-.1-1.2-.4-4.6-.1-10-.3-14.8l.2-.2c.3-.2-.1-.4-.2-.3-.1-.3.2-.4.1-.7h-.1c-.2-.1-.2-.2-.2-.4s.3-.2.4-.3c0-1.1-.3-2.1-.3-3l-.2.1c-.5-.6.7-.8.4-1.5h-.4c-.4-.2 0-.6-.2-.9.2-.4.7-.2.9-.4-.1 0-.2.1-.3.1-.4-.3 0-.6-.2-1 0-.2-.3-.1-.4-.1-.9-.4.4-.6.2-1l-.3-.1c.1-.3.1-.6.4-.8-.2 0-.3-.3-.4-.4-.2 0-.4.2-.5-.1 0-.1.1-.2.1-.3.3-.2.6-.3.8-.1v-.9c-.2 0-.5.1-.7-.1 0-1.5-.2-2.9-.5-4.2h-8.9c0 .2-.1.4-.1.7 0 .2.2.7.2.9.1.1 0 .3-.2.5-.2 0-.2.5-.2.6 0 .2.2.2.1.5.1.2.1.5.1 1.1-.4.6-.5 1.1-.5 1.8.6.8-.9 1.1-.1 1.8-.4.5.3 1.4-.2 2-1 1.3.7 2.7-.3 4-.2 0-.5-.1-.6.1.2.6-.7 1 0 1.5.1.2 0 .3-.1.5.7.9-.1 2 .1 2.9-.3.4.3.5.1 1-.1.1-.1.2-.3.2.4.7-.6 1.2 0 1.7 0 .1 0 .3-.1.4 0 .4 0 1.3-.2 1.5.1.8 0 1.7-.4 2.4.4.1.1.5 0 .7-.3-.1-.3-.5-.4-.7-.3.3.3.8-.2 1 0 .4.6 0 .7.4 0 1.4-.1 2.8-.8 4 .3.3-.3.4-.2.7.6.3 0 .8.1 1.3-.2 1.7.2 3.9-.7 5.2 0 .3.2.5.4.7.1.5.1 1.6-.2 2.1l.3.1c.1.3.1.8-.1 1.1.1-.1.2-.1.3 0 .4 6.5.4 13.5 0 19.9l-.7 1c-1.2 1.7 0 4.1-1 5.9.3 1.2.4 2.5.4 3.8.3 1.4-.8 2.3-1 3.5 1.1 1.7.2 4-.1 5.8.4 1.5-.6 2.5-.9 3.8-.1 4.4.6 8.6 1.5 12.5 1.2 1.4 1.9 3.6 3.9 4.3.3.3 1.2.3 1 .9.3-.1.6.2.8.3 0-.8 1-.3 1.2-1l.1.1c.4.1.1-.3.4-.4 1.3-.1 0 1.5.7 2 .3-.7.8-1.3 1.3-1.8 1.5-2.7 1.6-6 2.8-8.8.2-1.3-.3-3 1-3.8.3-1.8 1.7-3.2 2.5-4.8 0-1.1 1.2-1.8 1.9-2.6.6-.3.4-1.2 1.2-1.2 1.4-1.4 3-2.1 4.5-3.2 1.1-.7 2.3-1.4 3.4-1.7l-.2.2c1.6-.5 2.5 1.4 3.9 1.8-.6 2.5-1.6 5.3-.9 8-.3 3.6-1.6 6.9-1.1 10.8.4.4.8.8.7 1.5 1.1 1.7.9 3.9 1.6 5.7.6 2.4 3.5 2.8 4.5 4.9l.2-.4c.4.4.5.9.7 1.3.1.3.6 0 .5.4.8-1.3 1.6-2.5 2.7-3.7.5-.6 1.1-.8 1.5-1.5.4-.5.9-1.1 1.5-.8-.3-1.1.4-2.1 1.1-2.6l-.6-.6c.4-.8.6-1.5 1.2-1.9"/></svg>