<?xml version="1.0" encoding="utf-8"?>
<!-- Generator: Adobe Illustrator 22.0.0, SVG Export Plug-In . SVG Version: 6.00 Build 0)  -->
<!DOCTYPE svg PUBLIC "-//W3C//DTD SVG 1.1//EN" "http://www.w3.org/Graphics/SVG/1.1/DTD/svg11.dtd">
<svg version="1.1" id="Layer_1" xmlns="http://www.w3.org/2000/svg" xmlns:xlink="http://www.w3.org/1999/xlink" x="0px" y="0px"
	 viewBox="0 0 16 16" style="enable-background:new 0 0 16 16;" xml:space="preserve">
<style type="text/css">
	.st0{fill:#FFFFFF;}
</style>
<g id="Instagram">
	<path class="st0" d="M14.1,10.3c0,2.1-1.7,3.7-3.7,3.7H5.7C3.6,14,2,12.3,2,10.3V5.7C2,3.6,3.7,2,5.7,2h4.7c2.1,0,3.7,1.7,3.7,3.7
		C14.1,5.7,14.1,10.3,14.1,10.3z M10.9,0.5H5.1c-2.6,0-4.6,2.1-4.6,4.6v5.8c0,2.6,2.1,4.6,4.6,4.6h5.8c2.6,0,4.6-2.1,4.6-4.6V5.1
		C15.5,2.6,13.4,0.5,10.9,0.5"/>
	<path class="st0" d="M8.2,10.4c-1.3,0-2.4-1.1-2.4-2.4s1.1-2.4,2.4-2.4s2.4,1.1,2.4,2.4S9.5,10.4,8.2,10.4 M8.2,4.1
		c-2.2,0-4,1.8-4,4s1.8,4,4,4s4-1.8,4-4C12.2,5.8,10.4,4.1,8.2,4.1 M12.9,4c0,0.6-0.5,1-1,1s-1-0.4-1-1s0.4-1,1-1S12.9,3.5,12.9,4"
		/>
</g>
</svg>
