<?xml version="1.0" encoding="utf-8"?>
<!-- Generator: Adobe Illustrator 22.0.0, SVG Export Plug-In . SVG Version: 6.00 Build 0)  -->
<!DOCTYPE svg PUBLIC "-//W3C//DTD SVG 1.1//EN" "http://www.w3.org/Graphics/SVG/1.1/DTD/svg11.dtd">
<svg version="1.1" id="Layer_1" xmlns="http://www.w3.org/2000/svg" xmlns:xlink="http://www.w3.org/1999/xlink" x="0px" y="0px"
	 viewBox="0 0 16 16" style="enable-background:new 0 0 16 16;" xml:space="preserve">
<style type="text/css">
	.st0{fill:#FFFFFF;}
</style>
<path id="LinkedIn" class="st0" d="M2.7,0.4c0.9,0,1.7,0.8,1.7,1.8S3.7,4,2.7,4C1.8,4,0.9,3.2,0.9,2.2S1.8,0.4,2.7,0.4 M1.2,5.4h2.9
	v10H1.2V5.4z M6,5.4h2.8v1.4c0.4-0.8,1.4-1.6,2.8-1.6c3,0,3.5,2.1,3.5,4.8v5.5h-2.9v-4.9c0-1.2,0-2.7-1.5-2.7s-1.8,1.3-1.8,2.6v5H6
	V5.4z"/>
</svg>
