<svg xmlns="http://www.w3.org/2000/svg" viewBox="0 0 16 16"><style>.st0{fill:#fff}.st1{fill:#e4dede}</style><g id="Youtube"><path class="st0" d="M.7.4L15.3 8 .7 15.6z"/><path class="st1" d="M.7.5L13.4 9l1.9-1L1.9 1z"/></g><path class="st0" d="M10 3.3h1.3V1H9.4S8.1 1 7.3 2.1c0 0-.5.6-.6 2.2V6h-2v2.5h2V15H9V8.6h2l.3-2.5H9V4.4c0-.2.1-1.1 1-1.1" id="Facebook"/><path class="st0" d="M5.1 14.1c5.7 0 8.8-4.7 8.8-8.8v-.4c.6-.4 1.1-1 1.5-1.6-.6.2-1.1.4-1.8.5.6-.4 1.1-1 1.4-1.7-.6.4-1.3.6-2 .8-.6-.6-1.4-1-2.2-1-1.7 0-3 1.4-3 3.1 0 .2 0 .5.1.7C5.2 5.5 3 4.3 1.5 2.4c-.3.5-.4 1-.4 1.6 0 1.1.5 2 1.4 2.6-.5 0-1-.2-1.4-.4 0 1.5 1.1 2.7 2.5 3-.4.1-.6.2-.8.2s-.4 0-.6-.1c.4 1.2 1.5 2.1 2.9 2.1-1.1.8-2.4 1.3-3.8 1.3H.6c1.3.9 2.9 1.4 4.5 1.4" id="Twitter"/><path class="st0" d="M2.7.4c.9 0 1.7.8 1.7 1.8S3.7 4 2.7 4C1.8 4 .9 3.2.9 2.2S1.8.4 2.7.4m-1.5 5h2.9v10H1.2v-10zm4.8 0h2.8v1.4c.4-.8 1.4-1.6 2.8-1.6 3 0 3.5 2.1 3.5 4.8v5.5h-2.9v-4.9c0-1.2 0-2.7-1.5-2.7s-1.8 1.3-1.8 2.6v5H6V5.4z" id="LinkedIn"/><g id="Instagram"><path class="st0" d="M14.1 10.3c0 2.1-1.7 3.7-3.7 3.7H5.7C3.6 14 2 12.3 2 10.3V5.7C2 3.6 3.7 2 5.7 2h4.7c2.1 0 3.7 1.7 3.7 3.7v4.6zM10.9.5H5.1C2.5.5.5 2.6.5 5.1v5.8c0 2.6 2.1 4.6 4.6 4.6h5.8c2.6 0 4.6-2.1 4.6-4.6V5.1c0-2.5-2.1-4.6-4.6-4.6"/><path class="st0" d="M8.2 10.4c-1.3 0-2.4-1.1-2.4-2.4 0-1.3 1.1-2.4 2.4-2.4 1.3 0 2.4 1.1 2.4 2.4 0 1.3-1.1 2.4-2.4 2.4m0-6.3c-2.2 0-4 1.8-4 4s1.8 4 4 4 4-1.8 4-4c0-2.3-1.8-4-4-4m4.7-.1c0 .6-.5 1-1 1s-1-.4-1-1 .4-1 1-1 1 .5 1 1"/></g></svg>