<?xml version="1.0" encoding="utf-8"?>
<!-- Generator: Adobe Illustrator 22.0.0, SVG Export Plug-In . SVG Version: 6.00 Build 0)  -->
<!DOCTYPE svg PUBLIC "-//W3C//DTD SVG 1.1//EN" "http://www.w3.org/Graphics/SVG/1.1/DTD/svg11.dtd">
<svg version="1.1" id="Layer_1" xmlns="http://www.w3.org/2000/svg" xmlns:xlink="http://www.w3.org/1999/xlink" x="0px" y="0px"
	 viewBox="0 0 16 16" style="enable-background:new 0 0 16 16;" xml:space="preserve">
<style type="text/css">
	.st0{fill:#FFFFFF;}
</style>
<path id="Twitter" class="st0" d="M5.1,14.1c5.7,0,8.8-4.7,8.8-8.8V4.9c0.6-0.4,1.1-1,1.5-1.6c-0.6,0.2-1.1,0.4-1.8,0.5
	c0.6-0.4,1.1-1,1.4-1.7c-0.6,0.4-1.3,0.6-2,0.8c-0.6-0.6-1.4-1-2.2-1c-1.7,0-3,1.4-3,3.1c0,0.2,0,0.5,0.1,0.7C5.2,5.5,3,4.3,1.5,2.4
	C1.2,2.9,1.1,3.4,1.1,4c0,1.1,0.5,2,1.4,2.6c-0.5,0-1-0.2-1.4-0.4c0,1.5,1.1,2.7,2.5,3C3.2,9.3,3,9.4,2.8,9.4s-0.4,0-0.6-0.1
	c0.4,1.2,1.5,2.1,2.9,2.1c-1.1,0.8-2.4,1.3-3.8,1.3H0.6C1.9,13.6,3.5,14.1,5.1,14.1"/>
</svg>
