<?xml version="1.0" encoding="utf-8"?>
<!-- Generator: Adobe Illustrator 22.0.0, SVG Export Plug-In . SVG Version: 6.00 Build 0)  -->
<!DOCTYPE svg PUBLIC "-//W3C//DTD SVG 1.1//EN" "http://www.w3.org/Graphics/SVG/1.1/DTD/svg11.dtd">
<svg version="1.1" id="Layer_1" xmlns="http://www.w3.org/2000/svg" xmlns:xlink="http://www.w3.org/1999/xlink" x="0px" y="0px"
	 viewBox="0 0 1118 924" style="enable-background:new 0 0 1118 924;" xml:space="preserve">
<style type="text/css">
	.st0{clip-path:url(#SVGID_2_);fill:url(#SVGID_3_);}
	.st1{clip-path:url(#SVGID_5_);fill:url(#SVGID_6_);}
	.st2{clip-path:url(#SVGID_8_);fill:url(#SVGID_9_);}
	.st3{clip-path:url(#SVGID_11_);}
	.st4{clip-path:url(#SVGID_15_);fill:url(#SVGID_16_);}
	.st5{clip-path:url(#SVGID_18_);}
	.st6{clip-path:url(#SVGID_22_);}
	.st7{clip-path:url(#SVGID_26_);}
	.st8{clip-path:url(#SVGID_30_);}
	.st9{fill:#CC6B32;}
	.st10{clip-path:url(#SVGID_34_);}
</style>
<g>
	<defs>
		<path id="SVGID_1_" d="M360.3,6.6c-3,0-6,0.1-9,0.4C239.6,16.5,114,179,50.2,327.1l-0.4,1l-13.9,34.7
			C18.3,410.5,8.1,455.2,8,490.8v0.9c0.1,29.5,7.2,52.7,22.9,66.1c38.1,32.5,78.9,59.2,121.3,80.7c49.8,25.3,101.6,43.4,153.3,55.5
			c-63.5-153-24.2-409.7,123.6-540.6c38.7-34.2,83.4-45,130.5-38.7c-38.6-36-78.1-65.6-115.5-84.6c-29.4-14.9-57.5-23.4-83-23.5
			H360.3z"/>
	</defs>
	<clipPath id="SVGID_2_">
		<use xlink:href="#SVGID_1_"  style="overflow:visible;"/>
	</clipPath>
	
		<linearGradient id="SVGID_3_" gradientUnits="userSpaceOnUse" x1="21.9992" y1="839.8582" x2="22.9992" y2="839.8582" gradientTransform="matrix(1053.4944 200.2225 202.3652 -1221.7996 -193032.6562 1022049.125)">
		<stop  offset="0" style="stop-color:#F7D91B"/>
		<stop  offset="1" style="stop-color:#CB571C"/>
	</linearGradient>
	<polygon class="st0" points="24.8,-95.1 669.9,27.5 542.7,795.5 -102.4,672.9 	"/>
</g>
<g>
	<defs>
		<path id="SVGID_4_" d="M624,133c7.3,3.1,14.5,6.5,21.8,10.2c31.1,15.8,62.1,37,92,62.1c66.4,8.9,129.5,26.8,179,52
			c23,11.7,43.1,25,59.2,39.6c74.7,68.2,38.8,397.4-59.7,545.7c56,14.2,98.5,13.3,114.1-9.1c171.6-246.7,37.5-644.6-100.7-751.9
			c-1.9-1.5-3.9-2.9-5.9-4.3l-3-1.5l-24.9-12.6c-16.9-6.1-35.6-9-55.4-9C774.8,54.1,696.3,85.4,624,133"/>
	</defs>
	<clipPath id="SVGID_5_">
		<use xlink:href="#SVGID_4_"  style="overflow:visible;"/>
	</clipPath>
	
		<linearGradient id="SVGID_6_" gradientUnits="userSpaceOnUse" x1="21.925" y1="840.6581" x2="22.925" y2="840.6581" gradientTransform="matrix(-17.7828 -1042.7452 -904.3157 49.0538 761540.125 -16926.7852)">
		<stop  offset="0" style="stop-color:#F7D91B"/>
		<stop  offset="1" style="stop-color:#CB571C"/>
	</linearGradient>
	<polygon class="st1" points="624.6,888.1 610.3,54.9 1201.4,22.8 1215.6,856 	"/>
</g>
<g>
	<defs>
		<path id="SVGID_7_" d="M581.7,818.2L581.7,818.2c32.8,27,66.4,49.4,99.1,66.1c57.1,29,111.8,40.4,155.5,27.4
			c29.8-8.9,56.6-33.9,80-69.1c-47.1-12-103.8-34.6-162.1-64.2C698.5,797.3,638.5,811.6,581.7,818.2"/>
	</defs>
	<clipPath id="SVGID_8_">
		<use xlink:href="#SVGID_7_"  style="overflow:visible;"/>
	</clipPath>
	
		<linearGradient id="SVGID_9_" gradientUnits="userSpaceOnUse" x1="22.0012" y1="839.8104" x2="23.0012" y2="839.8104" gradientTransform="matrix(-839.8704 -157.8691 -159.8108 973.9993 153644.3594 -813611.0625)">
		<stop  offset="0" style="stop-color:#F7D91B"/>
		<stop  offset="1" style="stop-color:#CB571C"/>
	</linearGradient>
	<polygon class="st2" points="906.2,985.7 558.4,920.3 591.7,717.4 939.5,782.8 	"/>
</g>
<g>
	<defs>
		<path id="SVGID_10_" d="M980.6,619.3c-2.9,53.9-104.4,117.6-226.4,159.1c58.3,29.6,115,52.2,162.1,64.2
			c98.5-148.3,134.4-477.5,59.7-545.7c-16.1-14.7-36.1-27.9-59.2-39.6c-49.5-25.1-112.6-43.1-179-52
			C873.3,318.6,986.5,509.4,980.6,619.3"/>
	</defs>
	<clipPath id="SVGID_11_">
		<use xlink:href="#SVGID_10_"  style="overflow:visible;"/>
	</clipPath>
	<g class="st3">
		<defs>
			<polygon id="SVGID_12_" points="943.4,876.1 547.9,675.1 749.9,170.7 1145.4,371.7 			"/>
		</defs>
		<clipPath id="SVGID_13_">
			<use xlink:href="#SVGID_12_"  style="overflow:visible;"/>
		</clipPath>
		<g transform="matrix(1 -2.980232e-08 0 1 0 0)" style="clip-path:url(#SVGID_13_);">
			
				<image style="overflow:visible;" width="488" height="666" xlink:href="3CD2AE484635FBD4.jpg"  transform="matrix(-0.8104 -0.4119 -0.3033 0.7575 1145.3574 371.6503)">
			</image>
		</g>
	</g>
</g>
<g>
	<defs>
		<path id="SVGID_14_" d="M305.4,693.9c16.3,39.2,39.4,71.6,69.1,93.4c5.8,4.2,12,8,18.7,11.4c46.8,23.8,115,28.1,188.5,19.6
			c-36.6-30.1-72.2-65.8-104.6-105.4C422,713.3,363.8,707.5,305.4,693.9z M596.9,151.8c8.9-6.5,18-12.8,27.2-18.8
			c-15.5-6.6-31-11.7-46.3-15.1c-6.1-1.4-12.2-2.5-18.2-3.3C572.1,126.4,584.6,138.8,596.9,151.8"/>
	</defs>
	<clipPath id="SVGID_15_">
		<use xlink:href="#SVGID_14_"  style="overflow:visible;"/>
	</clipPath>
	
		<linearGradient id="SVGID_16_" gradientUnits="userSpaceOnUse" x1="21.9398" y1="840.2614" x2="22.9398" y2="840.2614" gradientTransform="matrix(-451.2105 -762.5861 -673.3355 541.809 576650 -437201.0312)">
		<stop  offset="0" style="stop-color:#F7D91B"/>
		<stop  offset="1" style="stop-color:#CB571C"/>
	</linearGradient>
	<polygon class="st4" points="408.2,1000.4 20,344.3 521.2,-59.1 909.5,597.1 	"/>
</g>
<g>
	<defs>
		<path id="SVGID_17_" d="M429,153.3C281.2,284.2,241.9,540.9,305.4,693.9c58.4,13.6,116.6,19.4,171.7,18.9
			C409,629.7,355,529.6,335.8,428.9C311.6,302,404.1,233.6,528.2,209.2c21.4-20.4,44.5-39.7,68.7-57.4c-12.3-13-24.8-25.4-37.4-37.2
			c-8.4-1.1-16.8-1.7-25-1.7C496.6,112.9,460.8,125.2,429,153.3"/>
	</defs>
	<clipPath id="SVGID_18_">
		<use xlink:href="#SVGID_17_"  style="overflow:visible;"/>
	</clipPath>
	<g class="st5">
		<defs>
			<polygon id="SVGID_19_" points="454.9,771 147.7,614.9 384.3,24.1 691.4,180.2 			"/>
		</defs>
		<clipPath id="SVGID_20_">
			<use xlink:href="#SVGID_19_"  style="overflow:visible;"/>
		</clipPath>
		<g transform="matrix(1 0 0 1 0 -1.525879e-05)" style="clip-path:url(#SVGID_20_);">
			
				<image style="overflow:visible;" width="379" height="780" xlink:href="3CD2AE484635FBD5.jpg"  transform="matrix(-0.8104 -0.4119 -0.3033 0.7575 691.4463 180.1617)">
			</image>
		</g>
	</g>
</g>
<g>
	<defs>
		<path id="SVGID_21_" d="M596.9,151.8c-24.1,17.6-47.3,37-68.7,57.4c65.3-12.8,139.3-13.4,209.6-4c-29.9-25-60.9-46.3-92-62.1
			c-7.3-3.7-14.6-7.1-21.8-10.2C614.9,139,605.8,145.3,596.9,151.8"/>
	</defs>
	<clipPath id="SVGID_22_">
		<use xlink:href="#SVGID_21_"  style="overflow:visible;"/>
	</clipPath>
	<g class="st6">
		<defs>
			<polygon id="SVGID_23_" points="701.7,298.4 526.6,209.4 569.4,102.6 744.4,191.6 			"/>
		</defs>
		<clipPath id="SVGID_24_">
			<use xlink:href="#SVGID_23_"  style="overflow:visible;"/>
		</clipPath>
		<g transform="matrix(1 2.980232e-08 0 1 0 0)" style="clip-path:url(#SVGID_24_);">
			
				<image style="overflow:visible;" width="216" height="141" xlink:href="3CD2AE484635FBDA.jpg"  transform="matrix(-0.8104 -0.4119 -0.3033 0.7575 744.4165 191.5853)">
			</image>
		</g>
	</g>
</g>
<g>
	<defs>
		<path id="SVGID_25_" d="M477.1,712.8c32.4,39.6,68,75.3,104.6,105.4c56.8-6.6,116.8-20.9,172.5-39.8c-0.2-0.1-0.5-0.2-0.7-0.4
			c-45.9-23.3-92.7-50.9-136.7-80.9C574.4,706.8,527.1,712.4,477.1,712.8"/>
	</defs>
	<clipPath id="SVGID_26_">
		<use xlink:href="#SVGID_25_"  style="overflow:visible;"/>
	</clipPath>
	<g class="st7">
		<defs>
			<polygon id="SVGID_27_" points="712.1,886.2 457.6,756.9 504.9,638.7 759.4,768 			"/>
		</defs>
		<clipPath id="SVGID_28_">
			<use xlink:href="#SVGID_27_"  style="overflow:visible;"/>
		</clipPath>
		<g transform="matrix(1 -2.980232e-08 0 1 0 0)" style="clip-path:url(#SVGID_28_);">
			
				<image style="overflow:visible;" width="314" height="156" xlink:href="3CD2AE484635FBDB.jpg"  transform="matrix(-0.8104 -0.4119 -0.3033 0.7575 759.3838 768.038)">
			</image>
		</g>
	</g>
</g>
<g>
	<defs>
		<path id="SVGID_29_" d="M335.8,428.9C355,529.6,409,629.7,477.1,712.8c50-0.4,97.3-6,139.7-15.7c-102.4-70-188.9-153-210-225.7
			c-22.9-78.5,34.7-179.3,121.5-262.2C404.1,233.6,311.6,302,335.8,428.9"/>
	</defs>
	<clipPath id="SVGID_30_">
		<use xlink:href="#SVGID_29_"  style="overflow:visible;"/>
	</clipPath>
	<g class="st8">
		<defs>
			<polygon id="SVGID_31_" points="588.6,770.6 201.3,573.7 378.4,131.4 765.8,328.2 			"/>
		</defs>
		<clipPath id="SVGID_32_">
			<use xlink:href="#SVGID_31_"  style="overflow:visible;"/>
		</clipPath>
		<g transform="matrix(1 2.980232e-08 2.980232e-08 1 0 0)" style="clip-path:url(#SVGID_32_);">
			
				<image style="overflow:visible;" width="478" height="584" xlink:href="3CD2AE484635FBDC.jpg"  transform="matrix(-0.8104 -0.4119 -0.3033 0.7575 765.7744 328.2418)">
			</image>
		</g>
	</g>
</g>
<g>
	<path class="st9" d="M753.5,778c0.2,0.1,0.5,0.2,0.7,0.4c122-41.5,223.6-105.2,226.4-159.1c5.9-109.9-107.3-300.7-242.8-414.1
		c-70.3-9.5-144.4-8.8-209.6,4c-86.7,82.9-144.3,183.7-121.5,262.2c21.2,72.7,107.6,155.7,210,225.7
		C660.7,727.1,707.6,754.7,753.5,778"/>
</g>
<g>
	<defs>
		<path id="SVGID_33_" d="M528.2,209.2c-86.7,82.9-144.3,183.7-121.5,262.2c21.2,72.7,107.6,155.7,210,225.7
			c43.9,30,90.8,57.6,136.7,80.9c0.2,0.1,0.5,0.2,0.7,0.4c122-41.5,223.6-105.2,226.4-159.1c5.9-109.9-107.3-300.7-242.8-414.1
			c-31.5-4.2-63.8-6.5-95.7-6.5C602.9,198.8,564.2,202.1,528.2,209.2"/>
	</defs>
	<clipPath id="SVGID_34_">
		<use xlink:href="#SVGID_33_"  style="overflow:visible;"/>
	</clipPath>
	<g class="st10">
		<defs>
			<polygon id="SVGID_35_" points="905.3,856.8 316.9,557.7 505.9,85.8 1094.2,384.9 			"/>
		</defs>
		<clipPath id="SVGID_36_">
			<use xlink:href="#SVGID_35_"  style="overflow:visible;"/>
		</clipPath>
		<g transform="matrix(1 -2.980232e-08 0 1 0 -3.051758e-05)" style="clip-path:url(#SVGID_36_);">
			
				<image style="overflow:visible;" width="726" height="623" xlink:href="3CD2AE484635FBDF.jpg"  transform="matrix(-0.8104 -0.4119 -0.3033 0.7575 1094.2275 384.8636)">
			</image>
		</g>
	</g>
</g>
</svg>
