<?xml version="1.0" encoding="utf-8"?>
<!-- Generator: Adobe Illustrator 22.0.0, SVG Export Plug-In . SVG Version: 6.00 Build 0)  -->
<!DOCTYPE svg PUBLIC "-//W3C//DTD SVG 1.1//EN" "http://www.w3.org/Graphics/SVG/1.1/DTD/svg11.dtd">
<svg version="1.1" id="Layer_1" xmlns="http://www.w3.org/2000/svg" xmlns:xlink="http://www.w3.org/1999/xlink" x="0px" y="0px"
	 viewBox="0 0 32 34" style="enable-background:new 0 0 32 34;" xml:space="preserve">
<g>
	<path d="M31,18.3c0,1.3-0.5,2.5-1.5,3.5c-1,1-2.2,1.5-3.5,1.5h-3.4c0.6,1.3,0.9,2.5,0.9,3.7c0,1.5-0.2,2.8-0.7,3.7
		c-0.5,0.9-1.1,1.6-2,2c-0.9,0.4-1.9,0.6-2.9,0.6c-0.7,0-1.2-0.2-1.8-0.7c-0.4-0.4-0.8-0.9-1.1-1.6c-0.3-0.6-0.4-1.2-0.5-1.8
		s-0.2-1.1-0.4-1.6c-0.2-0.5-0.4-1-0.6-1.3c-0.6-0.7-1.3-1.5-2.1-2.5c-1.3-1.7-2.2-2.7-2.7-3H3.5c-0.7,0-1.3-0.2-1.8-0.7
		C1.2,19.5,1,18.9,1,18.2V5.7C1,5.1,1.2,4.5,1.7,4s1.1-0.7,1.8-0.7h5.6c0.3,0,1.2-0.3,2.7-0.8c1.7-0.6,3.1-1,4.4-1.3
		c1.2-0.3,2.5-0.4,3.9-0.5h2.2c1.8,0,3.3,0.5,4.4,1.5c1.1,1,1.7,2.4,1.7,4.2v0.1c0.8,1,1.2,2.2,1.2,3.5c0,0.3,0,0.6,0,0.8
		c0.5,0.9,0.7,1.8,0.7,2.8c0,0.5-0.1,0.9-0.2,1.4C30.7,16,31,17.1,31,18.3z M6,7c0-0.4-0.1-0.6-0.4-0.9C5.4,5.9,5.1,5.8,4.7,5.7
		c-0.3,0-0.6,0.1-0.9,0.4C3.6,6.4,3.5,6.7,3.5,7c0,0.3,0.1,0.6,0.4,0.9c0.3,0.3,0.5,0.4,0.9,0.4c0.3,0,0.6-0.2,0.9-0.4
		C5.9,7.6,6,7.4,6,7z M28.5,18.2c0-0.4-0.1-1-0.4-1.6c-0.3-0.6-0.6-0.9-1.1-0.9c0.2-0.2,0.4-0.5,0.5-0.9c0.1-0.4,0.2-0.8,0.2-1.1
		c0-0.9-0.3-1.7-1-2.3c0.2-0.4,0.4-0.8,0.4-1.3c0-0.5-0.1-1-0.4-1.4c-0.2-0.5-0.5-0.8-0.9-1.1c0-0.4,0.1-0.7,0.1-1.1
		c0-1.1-0.3-1.9-0.9-2.5c-0.6-0.5-1.5-0.8-2.7-0.8h-2.5c-1.7,0-3.9,0.5-6.7,1.4l-0.6,0.2C12.2,5,12,5,11.8,5.1
		c-0.2,0.1-0.4,0.2-0.7,0.2l-0.7,0.2L9.8,5.7c-0.2,0-0.4,0.1-0.6,0H8.5v12.5h0.6c0.2,0,0.4,0.1,0.7,0.2c0.3,0.1,0.5,0.3,0.8,0.5
		l0.8,0.7c0.3,0.2,0.5,0.5,0.8,0.9c0.3,0.4,0.5,0.6,0.7,0.8c0.2,0.2,0.4,0.5,0.6,0.8l0.5,0.6c0.7,0.9,1.2,1.5,1.5,1.8
		c0.5,0.6,0.9,1.3,1.2,2.1c0.2,0.9,0.4,1.7,0.6,2.5c0.2,0.8,0.4,1.3,0.7,1.7c1.3,0,2.1-0.3,2.5-0.9c0.4-0.6,0.6-1.6,0.6-2.8
		c0-0.8-0.3-1.8-0.9-3.1c-0.6-1.3-0.9-2.3-0.9-3.1H26c0.7,0,1.2-0.3,1.8-0.8C28.3,19.5,28.5,18.9,28.5,18.2z"/>
</g>
</svg>
