<?xml version="1.0" encoding="utf-8"?>
<!-- Generator: Adobe Illustrator 22.0.0, SVG Export Plug-In . SVG Version: 6.00 Build 0)  -->
<!DOCTYPE svg PUBLIC "-//W3C//DTD SVG 1.1//EN" "http://www.w3.org/Graphics/SVG/1.1/DTD/svg11.dtd">
<svg version="1.1" id="Layer_1" xmlns="http://www.w3.org/2000/svg" xmlns:xlink="http://www.w3.org/1999/xlink" x="0px" y="0px"
	 viewBox="0 0 32 34" style="enable-background:new 0 0 32 34;" xml:space="preserve">
<g>
	<path d="M31,17c0,0.4-0.1,0.8-0.3,1.1c-1.6,2.6-3.7,4.6-6.3,6.2c-2.6,1.5-5.4,2.3-8.4,2.3s-5.7-0.8-8.4-2.3
		c-2.6-1.5-4.7-3.6-6.3-6.2C1.1,17.8,1,17.4,1,17c0-0.4,0.1-0.8,0.3-1.2c1.6-2.6,3.7-4.6,6.3-6.1c2.6-1.5,5.4-2.3,8.4-2.3
		s5.7,0.8,8.4,2.3c2.6,1.6,4.7,3.6,6.3,6.1C30.9,16.2,31,16.6,31,17z M28.9,17c-1.7-2.6-3.8-4.6-6.4-5.9c0.7,1.2,1,2.4,1,3.8
		c0,2.1-0.7,3.8-2.2,5.3c-1.5,1.5-3.2,2.2-5.3,2.2s-3.9-0.8-5.3-2.2c-1.5-1.4-2.2-3.2-2.2-5.3c0-1.3,0.3-2.6,1-3.8
		C7,12.4,4.8,14.4,3.1,17c1.5,2.3,3.4,4.1,5.6,5.5c2.2,1.4,4.7,2,7.3,2s5-0.7,7.3-2C25.5,21.1,27.4,19.3,28.9,17z M16.8,10.6
		c0-0.2-0.1-0.4-0.2-0.6c-0.2-0.2-0.4-0.2-0.6-0.2c-1.4,0-2.6,0.5-3.6,1.5c-1,1-1.5,2.2-1.5,3.6c0,0.2,0.1,0.4,0.2,0.6
		c0.2,0.2,0.3,0.2,0.6,0.2c0.2,0,0.4-0.1,0.6-0.2c0.2-0.2,0.2-0.4,0.2-0.6c0-1,0.3-1.8,1-2.5c0.7-0.7,1.5-1,2.5-1
		c0.2,0,0.4-0.1,0.6-0.2C16.7,11,16.8,10.8,16.8,10.6z"/>
</g>
</svg>
