<svg id="Layer_1" xmlns="http://www.w3.org/2000/svg" viewBox="0 0 16 16"><style>.st0{fill:#fff}</style><g id="Instagram"><path class="st0" d="M14.1 10.3c0 2.1-1.7 3.7-3.7 3.7H5.7C3.6 14 2 12.3 2 10.3V5.7C2 3.6 3.7 2 5.7 2h4.7c2.1 0 3.7 1.7 3.7 3.7v4.6zM10.9.5H5.1C2.5.5.5 2.6.5 5.1v5.8c0 2.6 2.1 4.6 4.6 4.6h5.8c2.6 0 4.6-2.1 4.6-4.6V5.1c0-2.5-2.1-4.6-4.6-4.6"/><path class="st0" d="M8.2 10.4c-1.3 0-2.4-1.1-2.4-2.4s1.1-2.4 2.4-2.4 2.4 1.1 2.4 2.4-1.1 2.4-2.4 2.4m0-6.3c-2.2 0-4 1.8-4 4s1.8 4 4 4 4-1.8 4-4c0-2.3-1.8-4-4-4m4.7-.1c0 .6-.5 1-1 1s-1-.4-1-1 .4-1 1-1 1 .5 1 1"/></g></svg>