<svg id="Layer_1" xmlns="http://www.w3.org/2000/svg" viewBox="0 0 107 130"><style>.st0{fill:#ae3f34}.st1{fill:#eb732d}.st2{fill:#fff}</style><path class="st0" d="M55.2 128.4H6c-3.1 0-5.5-2.5-5.5-5.5V7.1C.5 4.1 3 1.6 6 1.6h49.2v126.8z"/><path class="st1" d="M101 128.4H51.8V1.6H101c3.1 0 5.5 2.5 5.5 5.5V123c.1 2.9-2.4 5.4-5.5 5.4"/><path class="st2" d="M19.1 104.6c3.4 0 6.1 1.5 8.1 4.6l2.3-1.7c-.7-1.3-1.5-2.4-2.4-3.2-1-.8-2.1-1.5-3.5-2s-2.8-.8-4.3-.8c-2.4 0-4.5.6-6.4 1.8-1.9 1.2-3.4 2.9-4.5 5.1s-1.6 4.5-1.6 7.1c0 3.8 1.2 7 3.5 9.6 1.4 1.5 2.9 2.6 4.7 3.3h8.2c.7-.2 1.3-.5 1.9-.9 1.8-1 3.2-2.5 4.3-4.4l-2.3-1.8c-2.1 3.1-4.8 4.6-8.1 4.6-1.8 0-3.4-.5-4.9-1.4s-2.6-2.3-3.4-4c-.8-1.7-1.2-3.5-1.2-5.4 0-3 .9-5.5 2.7-7.5 1.9-2 4.1-3 6.9-3"/><path class="st2" d="M47.9 120.8c-.8 1.6-1.8 2.8-3.2 3.8-1.4.9-2.9 1.4-4.5 1.4s-3-.5-4.4-1.4-2.4-2.3-3.2-3.9c-.8-1.7-1.2-3.5-1.2-5.3 0-1.9.4-3.6 1.2-5.3.8-1.7 1.9-3 3.2-3.9 1.4-.9 2.8-1.4 4.4-1.4 2.5 0 4.6 1 6.3 3.1 1.7 2 2.5 4.6 2.5 7.6.1 1.9-.3 3.7-1.1 5.3m1-13.8c-1.1-1.8-2.4-3.2-3.9-4.1s-3.1-1.4-5-1.4c-3.2 0-5.9 1.3-8.2 4s-3.4 5.9-3.4 9.7c0 3.9 1.1 7.1 3.4 9.8 1.3 1.6 2.8 2.7 4.5 3.4h7.3c.4-.2.9-.4 1.3-.6 1.5-.9 2.9-2.2 4.1-3.9v4.5h2.9V74.8H49l-.1 32.2zm24-67.6h.2-.2M58.8 44c.1 0 0 0 0 0M73 39.5h.2-.2M59 44c-.1.2 0 .2 0 0"/><path class="st2" d="M101.3 101.8c-.2-.6-.2-1.1-.5-1.6-.2-2.2-1-4.1-1.6-6.1.3-.7-.6-1.3-.1-2-.5-1-.3-2.2-.7-3.2.1-1-.9-1.9-.3-2.7-.1-.6-.6-1.3-.2-1.9-1.2-2.4-2.3-4.9-3.3-7.4-.8-2.3-2.3-4.2-3-6.6-1.5-1.2-1.6-3.2-3.3-4.2-.9-.3-.6 1.1-1.6 1-.2-.4.4-.9.7-1.3-2.2-.1-4.5.1-6.6.7-.9.8-2.1.9-3.3.7-2.6-.1-4.3 2.2-6.8 2.1.6-2.4.4-5.1.7-7.7.2-.2.4-.4.7-.4-.2-.7.7-1.1.3-1.5.2-2.2 0-4.6-.4-6.8.1-.1.2-.2.3-.2l-.5-.3c0-.4.6-.3.6-.5l-.1-.1c-.6-3.2-.1-6.7.1-10l.4-.5-.1-.1c0-.1.2-.1.1-.2h-.2c-.2 0-.1-.2-.1-.3-.1-.5.1-.8.4-1v-.1c-.4-1.6-.1-3.5 0-5.2l.4-.3c.2-.4 0-.8-.1-1.2-.4-4.6-.1-10-.3-14.8l.2-.2c.3-.2-.1-.4-.2-.3-.1-.3.2-.4.1-.7h-.1c-.2-.1-.2-.2-.2-.4s.3-.2.4-.3c0-1.1-.3-2.1-.3-3l-.2.1c-.5-.6.7-.8.4-1.5h-.4c-.4-.2 0-.6-.2-.9.2-.4.7-.2.9-.4-.1 0-.2.1-.3.1-.4-.3 0-.6-.2-1 0-.2-.3-.1-.4-.1-.9-.4.4-.6.2-1l-.3-.1c.1-.3.1-.6.4-.8-.2 0-.3-.3-.4-.4-.2 0-.4.2-.5-.1 0-.1.1-.2.1-.3.3-.2.6-.3.8-.1v-.9c-.2 0-.5.1-.7-.1 0-1.5-.2-2.9-.5-4.2h-8.9c0 .2-.1.4-.1.7 0 .2.2.7.2.9.1.1 0 .3-.2.5-.2 0-.2.5-.2.6 0 .2.2.2.1.5.1.2.1.5.1 1.1-.4.7-.5 1.2-.5 1.9.6.8-.9 1.1-.1 1.8-.4.5.3 1.4-.2 2-1 1.3.7 2.7-.3 4-.2 0-.5-.1-.6.1.2.6-.7 1 0 1.5.1.2 0 .3-.1.5.7.9-.1 2 .1 2.9-.3.4.3.5.1 1-.1.1-.1.2-.3.2.4.7-.6 1.2 0 1.7 0 .1 0 .3-.1.4 0 .4 0 1.3-.2 1.5.1.8 0 1.7-.4 2.4.4.1.1.5 0 .7-.3-.1-.3-.5-.4-.7-.3.3.3.8-.2 1 0 .4.6 0 .7.4 0 1.4-.1 2.8-.8 4 .3.3-.3.4-.2.7.6.3 0 .8.1 1.3-.2 1.7.2 3.9-.7 5.2 0 .3.2.5.4.7.1.5.1 1.6-.2 2.1l.3.1c.1.3.1.8-.1 1.1.1-.1.2-.1.3 0 .4 6.5.4 13.5 0 19.9l-.7 1c-1.2 1.7 0 4.1-1 5.9.3 1.2.4 2.5.4 3.8.3 1.4-.8 2.3-1 3.5 1.1 1.7.2 4-.1 5.8.4 1.5-.6 2.5-.9 3.8-.1 4.4.6 8.6 1.5 12.5 1.2 1.4 1.9 3.6 3.9 4.3.3.3 1.2.3 1 .9.3-.1.6.2.8.3 0-.8 1-.3 1.2-1l.1.1c.4.1.1-.3.4-.4 1.3-.1 0 1.5.7 2 .3-.7.8-1.3 1.3-1.8 1.5-2.7 1.6-6 2.8-8.8.2-1.3-.3-3 1-3.8.3-1.8 1.7-3.2 2.5-4.8 0-1.1 1.2-1.8 1.9-2.6.6-.3.4-1.2 1.2-1.2 1.4-1.4 3-2.1 4.5-3.2 1.1-.7 2.3-1.4 3.4-1.7l-.2.2c1.6-.5 2.5 1.4 3.9 1.8-.6 2.5-1.6 5.3-.9 8-.3 3.6-1.6 6.9-1.1 10.8.4.4.8.8.7 1.5 1.1 1.7.9 3.9 1.6 5.7.6 2.4 3.5 2.8 4.5 4.9l.2-.4c.4.4.5.9.7 1.3.1.3.6 0 .5.4.8-1.3 1.6-2.5 2.7-3.7.5-.6 1.1-.8 1.5-1.5.4-.5.9-1.1 1.5-.8-.3-1.1.4-2.1 1.1-2.6l-.6-.6c.4-.9.6-1.6 1.2-2"/></svg>