<svg xmlns="http://www.w3.org/2000/svg" xmlns:xlink="http://www.w3.org/1999/xlink" viewBox="0 0 1118 924"><defs><path id="a" d="M360.3 6.6c-3 0-6 .1-9 .4C239.6 16.5 114 179 50.2 327.1l-.4 1-13.9 34.7C18.3 410.5 8.1 455.2 8 490.8v.9c.1 29.5 7.2 52.7 22.9 66.1 38.1 32.5 78.9 59.2 121.3 80.7 49.8 25.3 101.6 43.4 153.3 55.5-63.5-153-24.2-409.7 123.6-540.6 38.7-34.2 83.4-45 130.5-38.7-38.6-36-78.1-65.6-115.5-84.6-29.4-14.9-57.5-23.4-83-23.5h-.8z"/></defs><clipPath id="b"><use xlink:href="#a" overflow="visible"/></clipPath><linearGradient id="c" gradientUnits="userSpaceOnUse" x1="21.999" y1="839.858" x2="22.999" y2="839.858" gradientTransform="matrix(1053.4944 200.2225 202.3652 -1221.7996 -193032.656 1022049.125)"><stop offset="0" stop-color="#f7d91b"/><stop offset="1" stop-color="#cb571c"/></linearGradient><path clip-path="url(#b)" fill="url(#c)" d="M24.8-95.1L669.9 27.5l-127.2 768-645.1-122.6z"/><defs><path id="d" d="M624 133c7.3 3.1 14.5 6.5 21.8 10.2 31.1 15.8 62.1 37 92 62.1 66.4 8.9 129.5 26.8 179 52 23 11.7 43.1 25 59.2 39.6 74.7 68.2 38.8 397.4-59.7 545.7 56 14.2 98.5 13.3 114.1-9.1 171.6-246.7 37.5-644.6-100.7-751.9-1.9-1.5-3.9-2.9-5.9-4.3l-3-1.5-24.9-12.6c-16.9-6.1-35.6-9-55.4-9-65.7-.1-144.2 31.2-216.5 78.8"/></defs><clipPath id="e"><use xlink:href="#d" overflow="visible"/></clipPath><linearGradient id="f" gradientUnits="userSpaceOnUse" x1="21.925" y1="840.658" x2="22.925" y2="840.658" gradientTransform="matrix(-17.7828 -1042.7452 -904.3157 49.0538 761540.125 -16926.785)"><stop offset="0" stop-color="#f7d91b"/><stop offset="1" stop-color="#cb571c"/></linearGradient><path clip-path="url(#e)" fill="url(#f)" d="M624.6 888.1L610.3 54.9l591.1-32.1 14.2 833.2z"/><defs><path id="g" d="M581.7 818.2c32.8 27 66.4 49.4 99.1 66.1 57.1 29 111.8 40.4 155.5 27.4 29.8-8.9 56.6-33.9 80-69.1-47.1-12-103.8-34.6-162.1-64.2-55.7 18.9-115.7 33.2-172.5 39.8"/></defs><clipPath id="h"><use xlink:href="#g" overflow="visible"/></clipPath><linearGradient id="i" gradientUnits="userSpaceOnUse" x1="22.001" y1="839.81" x2="23.001" y2="839.81" gradientTransform="matrix(-839.8704 -157.8691 -159.8108 973.9993 153644.36 -813611.063)"><stop offset="0" stop-color="#f7d91b"/><stop offset="1" stop-color="#cb571c"/></linearGradient><path clip-path="url(#h)" fill="url(#i)" d="M906.2 985.7l-347.8-65.4 33.3-202.9 347.8 65.4z"/><defs><path id="j" d="M980.6 619.3c-2.9 53.9-104.4 117.6-226.4 159.1 58.3 29.6 115 52.2 162.1 64.2 98.5-148.3 134.4-477.5 59.7-545.7-16.1-14.7-36.1-27.9-59.2-39.6-49.5-25.1-112.6-43.1-179-52 135.5 113.3 248.7 304.1 242.8 414"/></defs><clipPath id="k"><use xlink:href="#j" overflow="visible"/></clipPath><g clip-path="url(#k)"><defs><path id="l" d="M943.4 876.1l-395.5-201 202-504.4 395.5 201z"/></defs><clipPath id="m"><use xlink:href="#l" overflow="visible"/></clipPath><g clip-path="url(#m)"><image width="488" height="666" xlink:href="3CD2AE484635FBD4.jpg" transform="matrix(-.8104 -.4119 -.3033 .7575 1145.357 371.65)" overflow="visible"/></g></g><defs><path id="n" d="M305.4 693.9c16.3 39.2 39.4 71.6 69.1 93.4 5.8 4.2 12 8 18.7 11.4 46.8 23.8 115 28.1 188.5 19.6-36.6-30.1-72.2-65.8-104.6-105.4-55.1.4-113.3-5.4-171.7-19zm291.5-542.1c8.9-6.5 18-12.8 27.2-18.8-15.5-6.6-31-11.7-46.3-15.1-6.1-1.4-12.2-2.5-18.2-3.3 12.5 11.8 25 24.2 37.3 37.2"/></defs><clipPath id="o"><use xlink:href="#n" overflow="visible"/></clipPath><linearGradient id="p" gradientUnits="userSpaceOnUse" x1="21.94" y1="840.261" x2="22.94" y2="840.261" gradientTransform="matrix(-451.2105 -762.5861 -673.3355 541.809 576650 -437201.031)"><stop offset="0" stop-color="#f7d91b"/><stop offset="1" stop-color="#cb571c"/></linearGradient><path clip-path="url(#o)" fill="url(#p)" d="M408.2 1000.4L20 344.3 521.2-59.1l388.3 656.2z"/><defs><path id="q" d="M429 153.3C281.2 284.2 241.9 540.9 305.4 693.9c58.4 13.6 116.6 19.4 171.7 18.9C409 629.7 355 529.6 335.8 428.9 311.6 302 404.1 233.6 528.2 209.2c21.4-20.4 44.5-39.7 68.7-57.4-12.3-13-24.8-25.4-37.4-37.2-8.4-1.1-16.8-1.7-25-1.7-37.9 0-73.7 12.3-105.5 40.4"/></defs><clipPath id="r"><use xlink:href="#q" overflow="visible"/></clipPath><g clip-path="url(#r)"><defs><path id="s" d="M454.9 771L147.7 614.9 384.3 24.1l307.1 156.1z"/></defs><clipPath id="t"><use xlink:href="#s" overflow="visible"/></clipPath><g clip-path="url(#t)"><image width="379" height="780" xlink:href="3CD2AE484635FBD5.jpg" transform="matrix(-.8104 -.4119 -.3033 .7575 691.446 180.162)" overflow="visible"/></g></g><defs><path id="u" d="M596.9 151.8c-24.1 17.6-47.3 37-68.7 57.4 65.3-12.8 139.3-13.4 209.6-4-29.9-25-60.9-46.3-92-62.1-7.3-3.7-14.6-7.1-21.8-10.2-9.1 6.1-18.2 12.4-27.1 18.9"/></defs><clipPath id="v"><use xlink:href="#u" overflow="visible"/></clipPath><g clip-path="url(#v)"><defs><path id="w" d="M701.7 298.4l-175.1-89 42.8-106.8 175 89z"/></defs><clipPath id="x"><use xlink:href="#w" overflow="visible"/></clipPath><g clip-path="url(#x)"><image width="216" height="141" xlink:href="3CD2AE484635FBDA.jpg" transform="matrix(-.8104 -.4119 -.3033 .7575 744.417 191.585)" overflow="visible"/></g></g><defs><path id="y" d="M477.1 712.8c32.4 39.6 68 75.3 104.6 105.4 56.8-6.6 116.8-20.9 172.5-39.8-.2-.1-.5-.2-.7-.4-45.9-23.3-92.7-50.9-136.7-80.9-42.4 9.7-89.7 15.3-139.7 15.7"/></defs><clipPath id="z"><use xlink:href="#y" overflow="visible"/></clipPath><g clip-path="url(#z)"><defs><path id="A" d="M712.1 886.2L457.6 756.9l47.3-118.2L759.4 768z"/></defs><clipPath id="B"><use xlink:href="#A" overflow="visible"/></clipPath><g clip-path="url(#B)"><image width="314" height="156" xlink:href="3CD2AE484635FBDB.jpg" transform="matrix(-.8104 -.4119 -.3033 .7575 759.384 768.038)" overflow="visible"/></g></g><defs><path id="C" d="M335.8 428.9C355 529.6 409 629.7 477.1 712.8c50-.4 97.3-6 139.7-15.7-102.4-70-188.9-153-210-225.7-22.9-78.5 34.7-179.3 121.5-262.2-124.2 24.4-216.7 92.8-192.5 219.7"/></defs><clipPath id="D"><use xlink:href="#C" overflow="visible"/></clipPath><g clip-path="url(#D)"><defs><path id="E" d="M588.6 770.6L201.3 573.7l177.1-442.3 387.4 196.8z"/></defs><clipPath id="F"><use xlink:href="#E" overflow="visible"/></clipPath><g clip-path="url(#F)"><image width="478" height="584" xlink:href="3CD2AE484635FBDC.jpg" transform="matrix(-.8104 -.4119 -.3033 .7575 765.774 328.242)" overflow="visible"/></g></g><path d="M753.5 778c.2.1.5.2.7.4 122-41.5 223.6-105.2 226.4-159.1 5.9-109.9-107.3-300.7-242.8-414.1-70.3-9.5-144.4-8.8-209.6 4-86.7 82.9-144.3 183.7-121.5 262.2 21.2 72.7 107.6 155.7 210 225.7 44 30 90.9 57.6 136.8 80.9" fill="#cc6b32"/><defs><path id="G" d="M528.2 209.2c-86.7 82.9-144.3 183.7-121.5 262.2 21.2 72.7 107.6 155.7 210 225.7 43.9 30 90.8 57.6 136.7 80.9.2.1.5.2.7.4 122-41.5 223.6-105.2 226.4-159.1 5.9-109.9-107.3-300.7-242.8-414.1-31.5-4.2-63.8-6.5-95.7-6.5-39.1.1-77.8 3.4-113.8 10.5"/></defs><clipPath id="H"><use xlink:href="#G" overflow="visible"/></clipPath><g clip-path="url(#H)"><defs><path id="I" d="M905.3 856.8L316.9 557.7l189-471.9 588.3 299.1z"/></defs><clipPath id="J"><use xlink:href="#I" overflow="visible"/></clipPath><g clip-path="url(#J)"><image width="726" height="623" xlink:href="3CD2AE484635FBDF.jpg" transform="matrix(-.8104 -.4119 -.3033 .7575 1094.227 384.864)" overflow="visible"/></g></g></svg>