<svg xmlns="http://www.w3.org/2000/svg" viewBox="0 0 32 34"><path d="M31 18.3c0 1.3-.5 2.5-1.5 3.5s-2.2 1.5-3.5 1.5h-3.4c.6 1.3.9 2.5.9 3.7 0 1.5-.2 2.8-.7 3.7-.5.9-1.1 1.6-2 2-.9.4-1.9.6-2.9.6-.7 0-1.2-.2-1.8-.7A5 5 0 0 1 15 31c-.3-.6-.4-1.2-.5-1.8s-.2-1.1-.4-1.6-.4-1-.6-1.3c-.6-.7-1.3-1.5-2.1-2.5-1.3-1.7-2.2-2.7-2.7-3H3.5c-.7 0-1.3-.2-1.8-.7-.5-.6-.7-1.2-.7-1.9V5.7c0-.6.2-1.2.7-1.7s1.1-.7 1.8-.7h5.6c.3 0 1.2-.3 2.7-.8 1.7-.6 3.1-1 4.4-1.3 1.2-.3 2.5-.4 3.9-.5h2.2c1.8 0 3.3.5 4.4 1.5 1.1 1 1.7 2.4 1.7 4.2v.1c.8 1 1.2 2.2 1.2 3.5v.8c.5.9.7 1.8.7 2.8 0 .5-.1.9-.2 1.4.6 1 .9 2.1.9 3.3zM6 7c0-.4-.1-.6-.4-.9-.2-.2-.5-.3-.9-.4-.3 0-.6.1-.9.4-.2.3-.3.6-.3.9 0 .3.1.6.4.9.3.3.5.4.9.4.3 0 .6-.2.9-.4.2-.3.3-.5.3-.9zm22.5 11.2c0-.4-.1-1-.4-1.6-.3-.6-.6-.9-1.1-.9.2-.2.4-.5.5-.9.1-.4.2-.8.2-1.1 0-.9-.3-1.7-1-2.3.2-.4.4-.8.4-1.3s-.1-1-.4-1.4c-.2-.5-.5-.8-.9-1.1 0-.4.1-.7.1-1.1 0-1.1-.3-1.9-.9-2.5-.6-.5-1.5-.8-2.7-.8h-2.5c-1.7 0-3.9.5-6.7 1.4l-.6.2c-.3.2-.5.2-.7.3-.2.1-.4.2-.7.2l-.7.2-.6.2c-.2 0-.4.1-.6 0h-.7v12.5h.6c.2 0 .4.1.7.2.3.1.5.3.8.5l.8.7c.3.2.5.5.8.9.3.4.5.6.7.8.2.2.4.5.6.8l.5.6c.7.9 1.2 1.5 1.5 1.8.5.6.9 1.3 1.2 2.1.2.9.4 1.7.6 2.5.2.8.4 1.3.7 1.7 1.3 0 2.1-.3 2.5-.9.4-.6.6-1.6.6-2.8 0-.8-.3-1.8-.9-3.1-.6-1.3-.9-2.3-.9-3.1H26c.7 0 1.2-.3 1.8-.8.5-.6.7-1.2.7-1.9z"/></svg>