<svg xmlns="http://www.w3.org/2000/svg" viewBox="0 0 32 34"><path d="M31 15.7c0 1.2-.3 2.2-.9 3.2.1.4.2.9.2 1.3 0 1-.2 1.9-.7 2.8v.8c0 1.3-.4 2.5-1.2 3.5 0 1.8-.6 3.3-1.7 4.3-1.1 1.1-2.6 1.6-4.4 1.6h-2.5c-1.3 0-2.5-.2-3.7-.5s-2.6-.7-4.2-1.3c-1.5-.5-2.4-.8-2.7-.8H3.5c-.7 0-1.3-.2-1.8-.7s-.7-1-.7-1.6V15.8c0-.7.2-1.3.7-1.8s1.1-.7 1.8-.7h5.4c.5-.3 1.4-1.3 2.7-3 .7-1 1.4-1.8 2.1-2.5.3-.3.5-.9.7-1.7.1-.8.3-1.6.6-2.5.3-.8.7-1.5 1.2-2.1.5-.5 1.1-.7 1.8-.7 1.1 0 2.1.2 2.9.6.9.4 1.5 1.1 2 2s.7 2.1.7 3.6c0 1.2-.3 2.4-.9 3.7H26c1.4 0 2.5.5 3.5 1.5s1.5 2.2 1.5 3.5zM6 27c0-.4-.1-.6-.4-.9-.3-.2-.5-.4-.9-.4-.3 0-.6.1-.9.4s-.4.6-.4.9.1.6.4.9.5.4.9.4c.3 0 .6-.2.9-.4.3-.3.4-.6.4-.9zm22.5-11.2c0-.7-.3-1.3-.8-1.8s-1.1-.7-1.8-.8H19c0-.7.3-1.8.9-3.1C20.7 8.8 21 7.8 21 7c0-1.3-.2-2.2-.6-2.8s-1.2-.9-2.5-.9c-.3.4-.6.9-.7 1.7-.2.8-.4 1.6-.6 2.5s-.6 1.6-1.2 2.1c-.3.3-.8.9-1.5 1.8 0 .1-.2.3-.5.6s-.5.6-.6.8c-.2.2-.4.5-.7.8l-.8.9c-.2.3-.5.5-.8.7l-.8.5c-.2.2-.5.2-.7.2h-.5v12.5h1.2c.3 0 .5.1.6.1.2.1.4.1.7.2s.6.2.7.2c.1.1.4.2.7.2s.5.1.6.2c2.8 1 5 1.4 6.7 1.4H22c2.5 0 3.7-1.1 3.7-3.3 0-.4 0-.7-.1-1.1.4-.2.7-.6.9-1.1.2-.5.4-1 .4-1.4 0-.5-.1-.9-.4-1.3.7-.7 1-1.4 1-2.3 0-.3-.1-.7-.2-1.1s-.3-.7-.5-.9c.4 0 .8-.3 1.1-.9.5-.6.6-1.1.6-1.5z"/></svg>