<svg xmlns="http://www.w3.org/2000/svg" viewBox="0 0 32 34"><path d="M31 17c0 .4-.1.8-.3 1.1-1.6 2.6-3.7 4.6-6.3 6.2-2.6 1.5-5.4 2.3-8.4 2.3s-5.7-.8-8.4-2.3c-2.6-1.5-4.7-3.6-6.3-6.2-.2-.3-.3-.7-.3-1.1 0-.4.1-.8.3-1.2 1.6-2.6 3.7-4.6 6.3-6.1C10.2 8.2 13 7.4 16 7.4s5.7.8 8.4 2.3c2.6 1.6 4.7 3.6 6.3 6.1.2.4.3.8.3 1.2zm-2.1 0c-1.7-2.6-3.8-4.6-6.4-5.9.7 1.2 1 2.4 1 3.8 0 2.1-.7 3.8-2.2 5.3-1.5 1.5-3.2 2.2-5.3 2.2s-3.9-.8-5.3-2.2c-1.5-1.4-2.2-3.2-2.2-5.3 0-1.3.3-2.6 1-3.8C7 12.4 4.8 14.4 3.1 17c1.5 2.3 3.4 4.1 5.6 5.5 2.2 1.4 4.7 2 7.3 2s5-.7 7.3-2c2.2-1.4 4.1-3.2 5.6-5.5zm-12.1-6.4c0-.2-.1-.4-.2-.6-.2-.2-.4-.2-.6-.2-1.4 0-2.6.5-3.6 1.5s-1.5 2.2-1.5 3.6c0 .2.1.4.2.6.2.2.3.2.6.2.2 0 .4-.1.6-.2.2-.2.2-.4.2-.6 0-1 .3-1.8 1-2.5s1.5-1 2.5-1c.2 0 .4-.1.6-.2.1-.2.2-.4.2-.6z"/></svg>